<svg xmlns="http://www.w3.org/2000/svg" xml:space="preserve" width="2267.72" height="2267.72"><style>.st3{fill:#9c5a8b}.st11,.st12,.st13,.st7,.st9{fill:none;stroke:#000;stroke-width:22;stroke-linecap:round;stroke-linejoin:round;stroke-miterlimit:10}.st11,.st12,.st13,.st9{stroke-width:15}.st11,.st12,.st13{stroke-width:8}.st12,.st13{fill:#23c0ed;stroke-width:10}.st13{fill:#01abd2}</style><g id="レイヤー_3"><path d="m862.14 802.22 64.17 47.25 57.82 61.35 42.31 68.4 24.68 69.81-2.82-179.11 57.82 77.57 83.92 78.98 107.19 68.4 99.43 47.25s56.63 38.11 82.51 52.18l1.41 49.36 83.21-2.82 41.61 19.04 47.25-85.33s53.8-151.73 31.99-235.91l-18.52-109.37s-26.19-106.52-72.06-130.28l-84.18-89.44-118.51-81.47-123.48-40.83s-189.22-21.98-228.14-4.55l-8.24 70.11-16 73.59-53.06 41.54-45.25 51.09-27.22 41.29s-70.56 11.9-71.93 12.86c-1.37.95-73.92 52.01-73.92 52.01l-50.34 22.2-69.12 1.99-23.73 64.45-3.89 129.54 19.58 66.06s20.16 43.97 44.62 74.9l2.47-98 13.75-80.95L703.91 929l44.73-63.92 75.46-55.45c-.01-.02 21.87-12.22 38.04-7.41" style="fill:#3f3f3f"/><path d="M823.3 809.78s-90.37 49.47-109.3 109.3l-25.95 61.33-17.3 86.5-5.5 114.8 16.51 79.42 17.3 77.06 3.15 85.71 14.15 102.22 41.68 92.79 69.2 83.35-80.99-23.59-33.03 25.16 22.8 36.96 60.55 29.88 99.08 56.62-17.3 29.88 7.86 41.68-14.94 28.31 6.22 39.65-19.32 31.4 12.08 49.11 45.08 47.5 86.94 43.47 51.52 58.77 10.47 92.58 210.12 8.86-19.32-135.25-14.49-70.04 12.88-97.41 78.89-28.18 98.21-50.72 12.08-377.56 28.98-84.53 66.82 1.61 61.18-33.01 33.81-59.57-10.47-84.53-42.67-29.79-99.02-6.44 2.84-51.44s40.14 25.46-94.46-59.53l-142.88-71.44-80.17-54.77s-67.81-35.64-109.45-130.53l-3.37 77.62-1.12 85.49-73.12-131.62s-59.42-91.77-114.74-104.62c-.02.01-16.5-6.09-41.49 7.54" style="fill:#fef7e5"/><path d="m882.09 1891.26-87.77 91.31s-67.27 4.1-128.55 54.97c0 0-119.95 53.46-153.37 105.5 0 0-70.3 80.66-89.54 132.98l169.33 68.26 333.34 1.77 140.96-34.58-12.41-106.39-46.99-63.83-76.03-36.05-42.2-35.71-25.97-46.53 2.71-47.07 2.16-38.41zM1429.11 1825.79l6.5 68.64-127.88 400.25 763.95-12.59s-56.82-185.53-407.31-308.7l-24.01-11.15-24.4-54.72s-16.88-38.44-83.29-65.34c-66.42-26.9-103.56-16.39-103.56-16.39" class="st3"/><path d="m1432.25 1930.77-129.57 387.14-35.12-10.42-28.6-210.05 11.11-104.97 76.64-16.73z" style="fill:#262626"/><path d="M435.48 703.86 956.2 391.84s-73.22-97.59-32.12-141.49c0 0 100.23 10.62 93.22 89.1 0 0 87.73-70.26 135.03-40.78 0 0-3.14 99.62-119.95 115.83 0 0 10.13 181.98-13.37 208.02 0 0-98.53 63.79-115.4 130.21 0 0-115.07 3.98-165.99 88.97 0 0-45.18 19.09-144.8 4.68 0 .02-153.57-71.62-157.34-142.52" style="fill:#29b8eb"/><path d="M603.5 835.89s64.4-37.24 83.22-67.81c0 0 39.45 39.83 75.87 34.03l-26.04 30.76-71.56 17.95z" style="fill:#daeeff"/></g><g id="レイヤー_2"><path d="M828.87 807.28s-166.39 39.81-166.39 373.13c0 0 35.46 165.53 37.73 189.39 0 0-14.1 233.38 133.88 334.25M1091.59 1805.69s33.59 6.58 68.99-10.22M1293.45 1706.68s121.37-102.21 174.4-251.69l13.1-262.87M1488.76 1245.36s113.3-33 136.26 48.28c0 0 34.06 99.08-53.3 146.83 0 0-26.6 18.82-96.49 12.89M865.31 802.63s150.62 87.09 184.9 246.98c0 0 8.97-109.84-7.39-186.14 0 0 55.6 123.76 222.52 212.89 17.14 9.15 34.83 17.23 52.84 24.5 22.48 9.07 72.58 31.98 129.54 75.36M617.86 855.06s-68.06 134.22 11.02 286.44" class="st7"/><path d="M702.84 1273.79c.36 2.66.85 8.46 1.46 11.4 0 0 8.04 125.16 103.38 131.61 0 0 46.57 5.38 82.6-29.67 16.53-16.08 27.32-37.15 31.36-59.86 3.34-18.75 6.78-48.27 1.77-73.67-3.76-19.06-20.71-32.64-40.13-32.49l-136.26 1.1c-27.09.73-47.85 24.73-44.18 51.58M1022.22 1269.79c.44 2.66 1.01 8.46 1.74 11.4 0 0 9.61 125.16 123.51 131.61 0 0 55.64 5.38 98.68-29.67 19.75-16.08 32.64-37.15 37.46-59.86 3.99-18.75 8.1-48.27 2.11-73.67-4.49-19.06-24.74-32.64-47.94-32.49l-162.79 1.1c-32.36.73-57.16 24.73-52.77 51.58M928.3 1293.4l94.22-1.65" class="st7"/><path d="m1294.8 1278.06 182.42-32.87" style="fill:none;stroke:#000;stroke-width:22;stroke-miterlimit:10"/><path d="M898.59 1140.04c-37.33-7.47-147.66-25.22-193.59.09 0 0-12.98 12.49 6.78 21.05 0 0 2.35-.77 6.51-1.98 29.03-8.45 59.06-12.95 89.29-13.53l90.68-1.72c2.35-.09 2.62-3.45.33-3.91M1078.85 1137.45c38.39-7.47 151.84-25.22 199.07.09 0 0 13.34 12.49-6.97 21.05 0 0-2.42-.77-6.7-1.98-29.85-8.45-60.74-12.95-91.82-13.53l-93.25-1.72c-2.41-.09-2.69-3.45-.33-3.91M750.2 1295.24c.49-8.82 8.04-15.58 16.86-15.09l100.85 5.59c8.82.49 15.58 8.04 15.09 16.86s-8.04 15.58-16.86 15.09l-100.85-5.59c-8.82-.48-15.58-8.03-15.09-16.86M1267.17 1289.94c-.55-11.24-9.58-19.81-20.17-19.15l-121.06 7.54c-10.59.66-18.73 10.3-18.18 21.54s9.58 19.81 20.17 19.15l121.06-7.54c10.59-.66 18.73-10.3 18.18-21.54"/><path d="m937.9 1215.63-.8 181.23s-81.51 54.68 2 78.21M945.04 1547.25c.76.51 10.7 6.95 17.8 11.12a11.36 11.36 0 0 0 11.89-.22l15.76-10.73c2.97-1.89 6.17-.23 9.44 1.09 18.81 7.58 85.23 33.23 133.93 24.41 0 0-25.43 43.49-97.02 60.55-35.13 8.37-71.09 11.21-104.33-2.89-23.55-9.98-50.64-29.55-75.9-56.89l7.82-1.44a342.5 342.5 0 0 0 79.61-25.01h1zM947.57 1671.29s29.94 15.77 74.15 1.67M1159.03 1837.83l-394.64-159.91c-12.67-5.13-27.32-3.25-37.8 5.52-6.91 5.78-12.11 14.33-10.17 26.76 1.77 11.37 9.05 21.15 19.17 26.63l164.66 89.19s-47.26 26.76-7.48 71.79" class="st7"/><path d="M888.77 1892.97s3.97 5.44-9.89 22.61c-22.42 27.78-14.07 36.14 3.42 52.17M872.12 1966.37s-40.91 54.5 19.33 109.35c0 0 43.51 40.93 120.54 65.63 0 0 29.24 26.93 40.03 64.84l8.07 57.81M1144.6 1821.72s90.63-139.22 127.15-127.21c0 0 60.84.97-39.74 171.96 0 0 31.04 61.11 5.12 220.52l26.33 183.25M1441.46 1516.04s-18.35 193.04-8.13 384.33l-116.69 361.11" class="st7"/><path d="M1256.61 1990.07s60.9-2.63 171.27-70.83M1436 1822.87s106.61-8.96 177.02 83.54c20.16 26.49 33.83 57.33 40.7 89.91l49.36 234-129.45-28.83-53.55 71.79" class="st7"/><path d="M1645.3 1966.37s314.2 95.35 416.13 300.44M878.89 1894.62s-188.7 159.14-174.85 325.47l111.66-12.98 38.09 66.65M976.7 2136.12l37.22 142.83" class="st7"/><path d="M800.99 1973.17s-311.25 110.57-375.28 302.35M724.25 846.16s68.23-83.38 176.45-94.14c0 0 35.67-94.73 141.92-128.67M1036.85 482.81s266.6-62.25 474.22 124.2c0 0 52.36 36.47 101.1 115.21 90.99 147 98.73 330.42 23.74 486.19-8.44 17.54-18.11 35.39-29.19 53.22" class="st7"/><path d="M959.38 389.29 422.5 709.3s112.4 196.87 313.01 124.73" class="st9"/><path d="M960.78 388.82s-71.35-57.32-37.24-139.26c0 0 89.6-7.81 89.6 96.58 0 0 59.12-77.23 142.1-46.35 0 0 2.12 99.85-129.04 114.01 0 0 21.15 116.15-6.62 211.92" class="st9"/><circle cx="709.21" cy="719.62" r="21" style="fill:#ebf4f7;stroke:#000;stroke-width:7;stroke-linecap:round;stroke-linejoin:round;stroke-miterlimit:10"/><path d="M720.24 718.02c-.3-2.27-1.23-4.29-2.57-5.95a6.01 6.01 0 0 1-5.13 4.96c-3.28.44-6.3-1.87-6.74-5.16-.2-1.52.19-2.99.99-4.17h-.04c-6.57.87-11.19 6.91-10.31 13.48.87 6.57 6.91 11.19 13.48 10.31 6.58-.86 11.19-6.9 10.32-13.47"/><path d="M695.31 752.62s-31.28 58.98-97.87 85.95M688.21 767.99s29.36 36.59 76.53 34.56" class="st11"/><path stroke-width="10.0001" d="m385.783 632.159 50.953-29.748 29.748 50.952-50.953 29.748zM546.662 538.231l50.952-29.747 29.748 50.952-50.953 29.748z" class="st12"/><path stroke-width="10.0001" d="m629.346 489.959 50.952-29.748 29.748 50.952-50.953 29.748z" class="st13"/><path stroke-width="10.0001" d="m458.34 497.874 50.952-29.747 29.748 50.952-50.953 29.748z" class="st12"/><path stroke-width="10.0001" d="m360.306 555.114 50.953-29.748 29.747 50.952-50.952 29.748z" class="st13"/><path stroke-width="9.9996" d="m375.177 466.578 39.465-43.855 43.855 39.465-39.465 43.855z" class="st13"/><path d="M241.36 536.19h59v59h-59z" style="fill:#23c1ed;stroke:#000;stroke-width:10;stroke-linecap:round;stroke-linejoin:round;stroke-miterlimit:10" transform="rotate(-45.001 270.855 565.695)"/><path d="M267.36 848.52h59v59h-59z" style="fill:#00aad5;stroke:#000;stroke-width:10;stroke-linecap:round;stroke-linejoin:round;stroke-miterlimit:10" transform="rotate(-64.017 296.888 878.066)"/><path stroke-width="10.0001" d="m463.428 586.828 50.952-29.747 29.748 50.952-50.952 29.748z" class="st13"/><path d="m1096.2 2152.71 61.87-8.44 40.57 25.31 60.26-7.23 4.82 57.45-51.82 8.84-34.95 41.78-71.51 4.01-37.36-26.11-22.9 2.41-7.63-53.03 22.9-4.42z" style="stroke:#000;stroke-width:7;stroke-linecap:round;stroke-linejoin:round;stroke-miterlimit:10"/><path d="M1087.86 2175.35h92v68.02h-92z" style="fill:#c2c2c2" transform="rotate(-7.915 1133.949 2209.495)"/><circle cx="1330.85" cy="1614.12" r="4.75"/></g></svg>