<?xml version="1.0" encoding="utf-8"?>
<!-- Generator: Adobe Adobe Illustrator 24.2.0, SVG Export Plug-In . SVG Version: 6.00 Build 0)  -->
<svg version="1.1" xmlns="http://www.w3.org/2000/svg" xmlns:xlink="http://www.w3.org/1999/xlink" x="0px" y="0px"
	 width="2267.72px" height="2267.72px" viewBox="0 0 2267.72 2267.72" style="enable-background:new 0 0 2267.72 2267.72;"
	 xml:space="preserve">
<style type="text/css">
	.st1{fill:#3F3F3F;}
	.st2{fill:#FEF7E5;}
	.st3{fill:#9C5A8B;}
	.st4{fill:#262626;}
	.st5{fill:#29B8EB;}
	.st6{fill:#DAEEFF;}
	.st7{fill:none;stroke:#000000;stroke-width:22;stroke-linecap:round;stroke-linejoin:round;stroke-miterlimit:10;}
	.st8{fill:none;stroke:#000000;stroke-width:22;stroke-miterlimit:10;}
	.st9{fill:none;stroke:#000000;stroke-width:15;stroke-linecap:round;stroke-linejoin:round;stroke-miterlimit:10;}
	.st10{fill:#EBF4F7;stroke:#000000;stroke-width:7;stroke-linecap:round;stroke-linejoin:round;stroke-miterlimit:10;}
	.st11{fill:none;stroke:#000000;stroke-width:8;stroke-linecap:round;stroke-linejoin:round;stroke-miterlimit:10;}
	.st12{fill:#23C0ED;stroke:#000000;stroke-width:10;stroke-linecap:round;stroke-linejoin:round;stroke-miterlimit:10;}
	.st13{fill:#01ABD2;stroke:#000000;stroke-width:10;stroke-linecap:round;stroke-linejoin:round;stroke-miterlimit:10;}
	.st14{fill:#23C1ED;stroke:#000000;stroke-width:10;stroke-linecap:round;stroke-linejoin:round;stroke-miterlimit:10;}
	.st15{fill:#00AAD5;stroke:#000000;stroke-width:10;stroke-linecap:round;stroke-linejoin:round;stroke-miterlimit:10;}
	.st16{stroke:#000000;stroke-width:7;stroke-linecap:round;stroke-linejoin:round;stroke-miterlimit:10;}
	.st17{fill:#C2C2C2;}
</style>
<g id="レイヤー_3">
	<path class="st1" d="M862.14,802.22l64.17,47.25l57.82,61.35l42.31,68.4l24.68,69.81l-2.82-179.11l57.82,77.57l83.92,78.98
		l107.19,68.4l99.43,47.25c0,0,56.63,38.11,82.51,52.18l1.41,49.36l83.21-2.82l41.61,19.04l47.25-85.33
		c0,0,53.8-151.73,31.99-235.91l-18.52-109.37c0,0-26.19-106.52-72.06-130.28l-84.18-89.44l-118.51-81.47l-123.48-40.83
		c0,0-189.22-21.98-228.14-4.55l-8.24,70.11l-16,73.59l-53.06,41.54l-45.25,51.09l-27.22,41.29c0,0-70.56,11.9-71.93,12.86
		c-1.37,0.95-73.92,52.01-73.92,52.01l-50.34,22.2l-69.12,1.99l-23.73,64.45l-3.89,129.54l19.58,66.06c0,0,20.16,43.97,44.62,74.9
		l2.47-98l13.75-80.95l26.44-76.38l44.73-63.92l75.46-55.45C824.09,809.61,845.97,797.41,862.14,802.22z"/>
	<path class="st2" d="M823.3,809.78c0,0-90.37,49.47-109.3,109.3l-25.95,61.33l-17.3,86.5l-5.5,114.8l16.51,79.42l17.3,77.06
		l3.15,85.71l14.15,102.22l41.68,92.79l69.2,83.35l-80.99-23.59l-33.03,25.16l22.8,36.96l60.55,29.88l99.08,56.62l-17.3,29.88
		l7.86,41.68l-14.94,28.31l6.22,39.65l-19.32,31.4l12.08,49.11l45.08,47.5l86.94,43.47l51.52,58.77l10.47,92.58l210.12,8.86
		l-19.32-135.25l-14.49-70.04l12.88-97.41l78.89-28.18l98.21-50.72l12.08-377.56l28.98-84.53l66.82,1.61l61.18-33.01l33.81-59.57
		l-10.47-84.53l-42.67-29.79l-99.02-6.44l2.84-51.44c0,0,40.14,25.46-94.46-59.53l-142.88-71.44l-80.17-54.77
		c0,0-67.81-35.64-109.45-130.53l-3.37,77.62l-1.12,85.49l-73.12-131.62c0,0-59.42-91.77-114.74-104.62
		C864.77,802.25,848.29,796.15,823.3,809.78z"/>
	<path class="st3" d="M882.09,1891.26l-87.77,91.31c0,0-67.27,4.1-128.55,54.97c0,0-119.95,53.46-153.37,105.5
		c0,0-70.3,80.66-89.54,132.98l169.33,68.26l333.34,1.77l140.96-34.58l-12.41-106.39l-46.99-63.83l-76.03-36.05l-42.2-35.71
		l-25.97-46.53l2.71-47.07l2.16-38.41L882.09,1891.26z"/>
	<path class="st3" d="M1429.11,1825.79l6.5,68.64l0,0l-127.88,400.25l763.95-12.59c0,0-56.82-185.53-407.31-308.7l-24.01-11.15
		l-24.4-54.72c0,0-16.88-38.44-83.29-65.34C1466.25,1815.28,1429.11,1825.79,1429.11,1825.79z"/>
	<polygon class="st4" points="1432.25,1930.77 1302.68,2317.91 1267.56,2307.49 1238.96,2097.44 1250.07,1992.47 1326.71,1975.74 	
		"/>
	<path class="st5" d="M435.48,703.86L956.2,391.84c0,0-73.22-97.59-32.12-141.49c0,0,100.23,10.62,93.22,89.1
		c0,0,87.73-70.26,135.03-40.78c0,0-3.14,99.62-119.95,115.83c0,0,10.13,181.98-13.37,208.02c0,0-98.53,63.79-115.4,130.21
		c0,0-115.07,3.98-165.99,88.97c0,0-45.18,19.09-144.8,4.68C592.82,846.4,439.25,774.76,435.48,703.86z"/>
	<path class="st6" d="M603.5,835.89c0,0,64.4-37.24,83.22-67.81c0,0,39.45,39.83,75.87,34.03l-26.04,30.76l-71.56,17.95
		L603.5,835.89z"/>
</g>
<g id="レイヤー_2">
	<path class="st7" d="M828.87,807.28c0,0-166.39,39.81-166.39,373.13c0,0,35.46,165.53,37.73,189.39c0,0-14.1,233.38,133.88,334.25"
		/>
	<path class="st7" d="M1091.59,1805.69c0,0,33.59,6.58,68.99-10.22"/>
	<path class="st7" d="M1293.45,1706.68c0,0,121.37-102.21,174.4-251.69l13.1-262.87"/>
	<path class="st7" d="M1488.76,1245.36c0,0,113.3-33,136.26,48.28c0,0,34.06,99.08-53.3,146.83c0,0-26.6,18.82-96.49,12.89"/>
	<path class="st7" d="M865.31,802.63c0,0,150.62,87.09,184.9,246.98c0,0,8.97-109.84-7.39-186.14c0,0,55.6,123.76,222.52,212.89
		c17.14,9.15,34.83,17.23,52.84,24.5c22.48,9.07,72.58,31.98,129.54,75.36"/>
	<path class="st7" d="M617.86,855.06c0,0-68.06,134.22,11.02,286.44"/>
	<path class="st7" d="M702.84,1273.79c0.36,2.66,0.85,8.46,1.46,11.4c0,0,8.04,125.16,103.38,131.61c0,0,46.57,5.38,82.6-29.67
		c16.53-16.08,27.32-37.15,31.36-59.86c3.34-18.75,6.78-48.27,1.77-73.67c-3.76-19.06-20.71-32.64-40.13-32.49l-136.26,1.1
		C719.93,1222.94,699.17,1246.94,702.84,1273.79z"/>
	<path class="st7" d="M1022.22,1269.79c0.44,2.66,1.01,8.46,1.74,11.4c0,0,9.61,125.16,123.51,131.61c0,0,55.64,5.38,98.68-29.67
		c19.75-16.08,32.64-37.15,37.46-59.86c3.99-18.75,8.1-48.27,2.11-73.67c-4.49-19.06-24.74-32.64-47.94-32.49l-162.79,1.1
		C1042.63,1218.94,1017.83,1242.94,1022.22,1269.79z"/>
	<line class="st7" x1="928.3" y1="1293.4" x2="1022.52" y2="1291.75"/>
	<line class="st8" x1="1294.8" y1="1278.06" x2="1477.22" y2="1245.19"/>
	<path d="M898.59,1140.04c-37.33-7.47-147.66-25.22-193.59,0.09c0,0-12.98,12.49,6.78,21.05c0,0,2.35-0.77,6.51-1.98
		c29.03-8.45,59.06-12.95,89.29-13.53l90.68-1.72C900.61,1143.86,900.88,1140.5,898.59,1140.04z"/>
	<path d="M1078.85,1137.45c38.39-7.47,151.84-25.22,199.07,0.09c0,0,13.34,12.49-6.97,21.05c0,0-2.42-0.77-6.7-1.98
		c-29.85-8.45-60.74-12.95-91.82-13.53l-93.25-1.72C1076.77,1141.27,1076.49,1137.91,1078.85,1137.45z"/>
	<path d="M750.2,1295.24L750.2,1295.24c0.49-8.82,8.04-15.58,16.86-15.09l100.85,5.59c8.82,0.49,15.58,8.04,15.09,16.86v0
		c-0.49,8.82-8.04,15.58-16.86,15.09l-100.85-5.59C756.47,1311.62,749.71,1304.07,750.2,1295.24z"/>
	<path d="M1267.17,1289.94L1267.17,1289.94c-0.55-11.24-9.58-19.81-20.17-19.15l-121.06,7.54c-10.59,0.66-18.73,10.3-18.18,21.54v0
		c0.55,11.24,9.58,19.81,20.17,19.15l121.06-7.54C1259.58,1310.82,1267.72,1301.18,1267.17,1289.94z"/>
	<path class="st7" d="M937.9,1215.63l-0.8,181.23c0,0-81.51,54.68,2,78.21"/>
	<path class="st7" d="M945.04,1547.25c0.76,0.51,10.7,6.95,17.8,11.12c3.69,2.17,8.28,2.09,11.89-0.22l15.76-10.73
		c2.97-1.89,6.17-0.23,9.44,1.09c18.81,7.58,85.23,33.23,133.93,24.41c0,0-25.43,43.49-97.02,60.55
		c-35.13,8.37-71.09,11.21-104.33-2.89c-23.55-9.98-50.64-29.55-75.9-56.89l7.82-1.44c27.46-5.06,54.19-13.46,79.61-25.01H945.04z"
		/>
	<path class="st7" d="M947.57,1671.29c0,0,29.94,15.77,74.15,1.67"/>
	<path class="st7" d="M1159.03,1837.83l-394.64-159.91c-12.67-5.13-27.32-3.25-37.8,5.52c-6.91,5.78-12.11,14.33-10.17,26.76
		c1.77,11.37,9.05,21.15,19.17,26.63l164.66,89.19c0,0-47.26,26.76-7.48,71.79"/>
	<path class="st7" d="M888.77,1892.97c0,0,3.97,5.44-9.89,22.61c-22.42,27.78-14.07,36.14,3.42,52.17"/>
	<path class="st7" d="M872.12,1966.37c0,0-40.91,54.5,19.33,109.35c0,0,43.51,40.93,120.54,65.63c0,0,29.24,26.93,40.03,64.84
		l8.07,57.81"/>
	<path class="st7" d="M1144.6,1821.72c0,0,90.63-139.22,127.15-127.21c0,0,60.84,0.97-39.74,171.96c0,0,31.04,61.11,5.12,220.52
		l26.33,183.25"/>
	<path class="st7" d="M1441.46,1516.04c0,0-18.35,193.04-8.13,384.33l-116.69,361.11"/>
	<path class="st7" d="M1256.61,1990.07c0,0,60.9-2.63,171.27-70.83"/>
	<path class="st7" d="M1436,1822.87c0,0,106.61-8.96,177.02,83.54c20.16,26.49,33.83,57.33,40.7,89.91l49.36,234l-129.45-28.83
		l-53.55,71.79"/>
	<path class="st7" d="M1645.3,1966.37c0,0,314.2,95.35,416.13,300.44"/>
	<path class="st7" d="M878.89,1894.62c0,0-188.7,159.14-174.85,325.47l111.66-12.98l38.09,66.65"/>
	<line class="st7" x1="976.7" y1="2136.12" x2="1013.92" y2="2278.95"/>
	<path class="st7" d="M800.99,1973.17c0,0-311.25,110.57-375.28,302.35"/>
	<path class="st7" d="M724.25,846.16c0,0,68.23-83.38,176.45-94.14c0,0,35.67-94.73,141.92-128.67"/>
	<path class="st7" d="M1036.85,482.81c0,0,266.6-62.25,474.22,124.2c0,0,52.36,36.47,101.1,115.21
		c90.99,147,98.73,330.42,23.74,486.19c-8.44,17.54-18.11,35.39-29.19,53.22"/>
	<path class="st9" d="M959.38,389.29L422.5,709.3c0,0,112.4,196.87,313.01,124.73"/>
	<path class="st9" d="M960.78,388.82c0,0-71.35-57.32-37.24-139.26c0,0,89.6-7.81,89.6,96.58c0,0,59.12-77.23,142.1-46.35
		c0,0,2.12,99.85-129.04,114.01c0,0,21.15,116.15-6.62,211.92"/>
	<circle class="st10" cx="709.21" cy="719.62" r="21"/>
	<g>
		<g>
			<path d="M720.24,718.02c-0.3-2.27-1.23-4.29-2.57-5.95c-0.42,2.53-2.45,4.6-5.13,4.96c-3.28,0.44-6.3-1.87-6.74-5.16
				c-0.2-1.52,0.19-2.99,0.99-4.17c-0.01,0-0.02,0-0.04,0c-6.57,0.87-11.19,6.91-10.31,13.48c0.87,6.57,6.91,11.19,13.48,10.31
				C716.5,730.63,721.11,724.59,720.24,718.02z"/>
		</g>
	</g>
	<path class="st11" d="M695.31,752.62c0,0-31.28,58.98-97.87,85.95"/>
	<path class="st11" d="M688.21,767.99c0,0,29.36,36.59,76.53,34.56"/>
	
		<rect x="396.64" y="613.23" transform="matrix(0.8636 -0.5042 0.5042 0.8636 -265.9454 302.5591)" class="st12" width="59" height="59"/>
	
		<rect x="557.51" y="519.3" transform="matrix(0.8636 -0.5042 0.5042 0.8636 -196.635 370.8604)" class="st12" width="59" height="59"/>
	
		<rect x="640.19" y="471.03" transform="matrix(0.8636 -0.5042 0.5042 0.8636 -161.0159 405.961)" class="st13" width="59" height="59"/>
	
		<rect x="469.19" y="478.95" transform="matrix(0.8636 -0.5042 0.5042 0.8636 -188.3397 320.8188)" class="st12" width="59" height="59"/>
	
		<rect x="371.16" y="536.19" transform="matrix(0.8636 -0.5042 0.5042 0.8636 -230.5746 279.1988)" class="st13" width="59" height="59"/>
	
		<rect x="387.36" y="434.9" transform="matrix(0.6689 -0.7433 0.7433 0.6689 -207.1893 463.5978)" class="st13" width="59" height="59"/>
	
		<rect x="241.36" y="536.19" transform="matrix(0.7071 -0.7071 0.7071 0.7071 -320.6695 357.2138)" class="st14" width="59" height="59"/>
	
		<rect x="267.36" y="848.52" transform="matrix(0.4381 -0.8989 0.8989 0.4381 -622.4718 760.2579)" class="st15" width="59" height="59"/>
	
		<rect x="474.28" y="567.9" transform="matrix(0.8636 -0.5042 0.5042 0.8636 -232.4956 335.5219)" class="st13" width="59" height="59"/>
	<polygon class="st16" points="1096.2,2152.71 1158.07,2144.27 1198.64,2169.58 1258.9,2162.35 1263.72,2219.8 1211.9,2228.64 
		1176.95,2270.42 1105.44,2274.43 1068.08,2248.32 1045.18,2250.73 1037.55,2197.7 1060.45,2193.28 	"/>
	
		<rect x="1087.86" y="2175.35" transform="matrix(0.9905 -0.1377 0.1377 0.9905 -293.4457 177.1919)" class="st17" width="92" height="68.02"/>
	<circle cx="1330.85" cy="1614.12" r="4.75"/>
</g>
</svg>
